<mxfile host="65bd71144e">
    <diagram id="4VGJEKoJ7Xsf8tkKujul" name="Overactive">
        <mxGraphModel dx="1374" dy="776" grid="1" gridSize="10" guides="1" tooltips="1" connect="1" arrows="1" fold="1" page="1" pageScale="1" pageWidth="1169" pageHeight="827" math="0" shadow="0">
            <root>
                <mxCell id="0"/>
                <mxCell id="1" parent="0"/>
                <mxCell id="3" value="Overactive" style="rounded=0;whiteSpace=wrap;html=1;fillColor=none;labelPosition=center;verticalLabelPosition=top;align=center;verticalAlign=bottom;fontStyle=1" parent="1" vertex="1">
                    <mxGeometry x="105" y="100" width="575" height="330" as="geometry"/>
                </mxCell>
                <mxCell id="24" value="Delivery Managers" style="rounded=0;whiteSpace=wrap;html=1;fillColor=none;strokeColor=#6c8ebf;labelPosition=center;verticalLabelPosition=top;align=center;verticalAlign=bottom;" parent="1" vertex="1">
                    <mxGeometry x="120" y="130" width="182.5" height="110" as="geometry"/>
                </mxCell>
                <mxCell id="25" value="Technical Directors" style="rounded=0;whiteSpace=wrap;html=1;fillColor=none;strokeColor=#82b366;labelPosition=center;verticalLabelPosition=top;align=center;verticalAlign=bottom;" parent="1" vertex="1">
                    <mxGeometry x="320" y="130" width="160" height="110" as="geometry"/>
                </mxCell>
                <mxCell id="23" value="Project Managers" style="rounded=0;whiteSpace=wrap;html=1;fillColor=none;strokeColor=#6c8ebf;labelPosition=center;verticalLabelPosition=top;align=center;verticalAlign=bottom;" parent="1" vertex="1">
                    <mxGeometry x="120" y="260" width="180" height="140" as="geometry"/>
                </mxCell>
                <mxCell id="26" value="Technical Managers" style="rounded=0;whiteSpace=wrap;html=1;fillColor=none;strokeColor=#82b366;labelPosition=center;verticalLabelPosition=top;align=center;verticalAlign=bottom;" parent="1" vertex="1">
                    <mxGeometry x="320" y="260" width="160" height="140" as="geometry"/>
                </mxCell>
                <mxCell id="2" value="Maxi" style="shape=umlActor;verticalLabelPosition=bottom;verticalAlign=top;html=1;outlineConnect=0;fillColor=#dae8fc;strokeColor=#6c8ebf;" parent="1" vertex="1">
                    <mxGeometry x="185" y="290" width="30" height="60" as="geometry"/>
                </mxCell>
                <mxCell id="6" value="" style="group;strokeColor=none;" parent="1" vertex="1" connectable="0">
                    <mxGeometry x="245" y="290" width="30" height="60" as="geometry"/>
                </mxCell>
                <mxCell id="9" value="" style="group" parent="6" vertex="1" connectable="0">
                    <mxGeometry width="30" height="60" as="geometry"/>
                </mxCell>
                <mxCell id="4" value="Fabiola" style="shape=umlActor;verticalLabelPosition=bottom;verticalAlign=top;html=1;outlineConnect=0;fillColor=#dae8fc;strokeColor=#6c8ebf;" parent="9" vertex="1">
                    <mxGeometry width="30" height="60" as="geometry"/>
                </mxCell>
                <mxCell id="5" value="" style="triangle;whiteSpace=wrap;html=1;fillColor=#dae8fc;rotation=-90;strokeColor=#6c8ebf;" parent="9" vertex="1">
                    <mxGeometry x="5" y="30" width="20" height="30" as="geometry"/>
                </mxCell>
                <mxCell id="10" value="" style="group;strokeColor=none;" parent="1" vertex="1" connectable="0">
                    <mxGeometry x="155" y="150" width="30" height="60" as="geometry"/>
                </mxCell>
                <mxCell id="11" value="" style="group" parent="10" vertex="1" connectable="0">
                    <mxGeometry width="30" height="60" as="geometry"/>
                </mxCell>
                <mxCell id="12" value="Florencia" style="shape=umlActor;verticalLabelPosition=bottom;verticalAlign=top;html=1;outlineConnect=0;fillColor=#dae8fc;strokeColor=#6c8ebf;" parent="11" vertex="1">
                    <mxGeometry width="30" height="60" as="geometry"/>
                </mxCell>
                <mxCell id="13" value="" style="triangle;whiteSpace=wrap;html=1;fillColor=#dae8fc;rotation=-90;strokeColor=#6c8ebf;" parent="11" vertex="1">
                    <mxGeometry x="5" y="30" width="20" height="30" as="geometry"/>
                </mxCell>
                <mxCell id="18" value="Salvador" style="shape=umlActor;verticalLabelPosition=bottom;verticalAlign=top;html=1;outlineConnect=0;fillColor=#dae8fc;strokeColor=#6c8ebf;opacity=60;" parent="1" vertex="1">
                    <mxGeometry x="220" y="150" width="30" height="60" as="geometry"/>
                </mxCell>
                <mxCell id="19" value="William" style="shape=umlActor;verticalLabelPosition=bottom;verticalAlign=top;html=1;outlineConnect=0;fillColor=#d5e8d4;strokeColor=#82b366;opacity=60;" parent="1" vertex="1">
                    <mxGeometry x="357.5" y="150" width="30" height="60" as="geometry"/>
                </mxCell>
                <mxCell id="20" value="GastÃ³n" style="shape=umlActor;verticalLabelPosition=bottom;verticalAlign=top;html=1;outlineConnect=0;fillColor=#d5e8d4;strokeColor=#82b366;" parent="1" vertex="1">
                    <mxGeometry x="415" y="150" width="30" height="60" as="geometry"/>
                </mxCell>
                <mxCell id="21" value="Leo" style="shape=umlActor;verticalLabelPosition=bottom;verticalAlign=top;html=1;outlineConnect=0;fillColor=#d5e8d4;strokeColor=#82b366;" parent="1" vertex="1">
                    <mxGeometry x="350" y="295" width="30" height="60" as="geometry"/>
                </mxCell>
                <mxCell id="22" value="Emilio" style="shape=umlActor;verticalLabelPosition=bottom;verticalAlign=top;html=1;outlineConnect=0;fillColor=#dae8fc;strokeColor=#6c8ebf;opacity=40;" parent="1" vertex="1">
                    <mxGeometry x="135" y="290" width="30" height="60" as="geometry"/>
                </mxCell>
                <mxCell id="27" value="Human Resources" style="rounded=0;whiteSpace=wrap;html=1;fillColor=none;strokeColor=#9673a6;labelPosition=center;verticalLabelPosition=top;align=center;verticalAlign=bottom;" parent="1" vertex="1">
                    <mxGeometry x="500" y="130" width="165" height="110" as="geometry"/>
                </mxCell>
                <mxCell id="34" value="" style="group" parent="1" vertex="1" connectable="0">
                    <mxGeometry x="410" y="295" width="40" height="70" as="geometry"/>
                </mxCell>
                <mxCell id="28" value="" style="shape=umlActor;verticalLabelPosition=bottom;verticalAlign=top;html=1;outlineConnect=0;fillColor=#d5e8d4;strokeColor=#82b366;" parent="34" vertex="1">
                    <mxGeometry width="30" height="60" as="geometry"/>
                </mxCell>
                <mxCell id="32" value="Others" style="shape=umlActor;verticalLabelPosition=bottom;verticalAlign=top;html=1;outlineConnect=0;fillColor=#d5e8d4;strokeColor=#82b366;" parent="34" vertex="1">
                    <mxGeometry x="10" y="10" width="30" height="60" as="geometry"/>
                </mxCell>
                <mxCell id="36" value="" style="group" parent="1" vertex="1" connectable="0">
                    <mxGeometry x="530" y="150" width="30" height="60" as="geometry"/>
                </mxCell>
                <mxCell id="16" value="Adelita" style="shape=umlActor;verticalLabelPosition=bottom;verticalAlign=top;html=1;outlineConnect=0;fillColor=#e1d5e7;strokeColor=#9673a6;" parent="36" vertex="1">
                    <mxGeometry width="30" height="60" as="geometry"/>
                </mxCell>
                <mxCell id="17" value="" style="triangle;whiteSpace=wrap;html=1;fillColor=#e1d5e7;rotation=-90;strokeColor=#9673a6;" parent="36" vertex="1">
                    <mxGeometry x="5" y="30" width="20" height="30" as="geometry"/>
                </mxCell>
            </root>
        </mxGraphModel>
    </diagram>
    <diagram name="Evertec" id="dQEx5DTnshNjVvx_merW">
        <mxGraphModel dx="1374" dy="776" grid="1" gridSize="10" guides="1" tooltips="1" connect="1" arrows="1" fold="1" page="1" pageScale="1" pageWidth="1169" pageHeight="827" math="0" shadow="0">
            <root>
                <mxCell id="9hc8IyFY8AAi5o9XFkEQ-0"/>
                <mxCell id="9hc8IyFY8AAi5o9XFkEQ-1" parent="9hc8IyFY8AAi5o9XFkEQ-0"/>
                <mxCell id="9hc8IyFY8AAi5o9XFkEQ-2" value="Banco Cooperativo (BCPR)" style="rounded=0;whiteSpace=wrap;html=1;fillColor=none;labelPosition=center;verticalLabelPosition=top;align=center;verticalAlign=bottom;fontStyle=1" parent="9hc8IyFY8AAi5o9XFkEQ-1" vertex="1">
                    <mxGeometry x="105" y="100" width="675" height="510" as="geometry"/>
                </mxCell>
                <mxCell id="-55iJqX7cyHrTdOnYh2b-0" value="Overactive" style="rounded=0;whiteSpace=wrap;fillColor=none;dashed=1;strokeColor=#666666;fontColor=#333333;labelPosition=center;verticalLabelPosition=top;align=center;verticalAlign=bottom;fontStyle=1" parent="9hc8IyFY8AAi5o9XFkEQ-1" vertex="1">
                    <mxGeometry x="130" y="140" width="430" height="460" as="geometry"/>
                </mxCell>
                <mxCell id="-55iJqX7cyHrTdOnYh2b-1" value="Evertec" style="rounded=0;whiteSpace=wrap;html=1;fillColor=none;labelPosition=center;verticalLabelPosition=top;align=center;verticalAlign=bottom;dashed=1;fontStyle=1" parent="9hc8IyFY8AAi5o9XFkEQ-1" vertex="1">
                    <mxGeometry x="585" y="140" width="170" height="460" as="geometry"/>
                </mxCell>
                <mxCell id="9hc8IyFY8AAi5o9XFkEQ-8" value="" style="group;strokeColor=none;" parent="9hc8IyFY8AAi5o9XFkEQ-1" vertex="1" connectable="0">
                    <mxGeometry x="245" y="290" width="30" height="60" as="geometry"/>
                </mxCell>
                <mxCell id="9hc8IyFY8AAi5o9XFkEQ-9" value="" style="group" parent="9hc8IyFY8AAi5o9XFkEQ-8" vertex="1" connectable="0">
                    <mxGeometry width="30" height="60" as="geometry"/>
                </mxCell>
                <mxCell id="9hc8IyFY8AAi5o9XFkEQ-10" value="Fabiola" style="shape=umlActor;verticalLabelPosition=bottom;verticalAlign=top;html=1;outlineConnect=0;fillColor=#d5e8d4;strokeColor=#82b366;" parent="9hc8IyFY8AAi5o9XFkEQ-9" vertex="1">
                    <mxGeometry width="30" height="60" as="geometry"/>
                </mxCell>
                <mxCell id="9hc8IyFY8AAi5o9XFkEQ-11" value="" style="triangle;whiteSpace=wrap;html=1;fillColor=#d5e8d4;rotation=-90;strokeColor=#82b366;" parent="9hc8IyFY8AAi5o9XFkEQ-9" vertex="1">
                    <mxGeometry x="5" y="30" width="20" height="30" as="geometry"/>
                </mxCell>
                <mxCell id="9hc8IyFY8AAi5o9XFkEQ-12" value="" style="group;strokeColor=none;" parent="9hc8IyFY8AAi5o9XFkEQ-1" vertex="1" connectable="0">
                    <mxGeometry x="250" y="150" width="30" height="60" as="geometry"/>
                </mxCell>
                <mxCell id="9hc8IyFY8AAi5o9XFkEQ-13" value="" style="group" parent="9hc8IyFY8AAi5o9XFkEQ-12" vertex="1" connectable="0">
                    <mxGeometry width="30" height="60" as="geometry"/>
                </mxCell>
                <mxCell id="9hc8IyFY8AAi5o9XFkEQ-14" value="Florencia" style="shape=umlActor;verticalLabelPosition=bottom;verticalAlign=top;html=1;outlineConnect=0;fillColor=#d5e8d4;strokeColor=#82b366;" parent="9hc8IyFY8AAi5o9XFkEQ-13" vertex="1">
                    <mxGeometry width="30" height="60" as="geometry"/>
                </mxCell>
                <mxCell id="9hc8IyFY8AAi5o9XFkEQ-15" value="" style="triangle;whiteSpace=wrap;html=1;fillColor=#d5e8d4;rotation=-90;strokeColor=#82b366;" parent="9hc8IyFY8AAi5o9XFkEQ-13" vertex="1">
                    <mxGeometry x="5" y="30" width="20" height="30" as="geometry"/>
                </mxCell>
                <mxCell id="9hc8IyFY8AAi5o9XFkEQ-19" value="Enrique" style="shape=umlActor;verticalLabelPosition=bottom;verticalAlign=top;html=1;outlineConnect=0;fillColor=#dae8fc;strokeColor=#6c8ebf;" parent="9hc8IyFY8AAi5o9XFkEQ-1" vertex="1">
                    <mxGeometry x="655" y="510" width="30" height="60" as="geometry"/>
                </mxCell>
                <mxCell id="XcuYYT0ju3Yd_wlvGGqH-1" value="Edwin" style="shape=umlActor;verticalLabelPosition=bottom;verticalAlign=top;html=1;outlineConnect=0;fillColor=#dae8fc;strokeColor=#6c8ebf;" parent="9hc8IyFY8AAi5o9XFkEQ-1" vertex="1">
                    <mxGeometry x="595" y="150" width="30" height="60" as="geometry"/>
                </mxCell>
                <mxCell id="XcuYYT0ju3Yd_wlvGGqH-2" value="Leo" style="shape=umlActor;verticalLabelPosition=bottom;verticalAlign=top;html=1;outlineConnect=0;fillColor=#d5e8d4;strokeColor=#82b366;" parent="9hc8IyFY8AAi5o9XFkEQ-1" vertex="1">
                    <mxGeometry x="240" y="400" width="30" height="60" as="geometry"/>
                </mxCell>
                <mxCell id="gZvV0nH_NGW89BqpKpGX-2" value="Pedro" style="shape=umlActor;verticalLabelPosition=bottom;verticalAlign=top;html=1;outlineConnect=0;fillColor=#d5e8d4;strokeColor=#82b366;" parent="9hc8IyFY8AAi5o9XFkEQ-1" vertex="1">
                    <mxGeometry x="320" y="510" width="30" height="60" as="geometry"/>
                </mxCell>
                <mxCell id="gZvV0nH_NGW89BqpKpGX-3" value="SimÃ³n" style="shape=umlActor;verticalLabelPosition=bottom;verticalAlign=top;html=1;outlineConnect=0;fillColor=#d5e8d4;strokeColor=#82b366;" parent="9hc8IyFY8AAi5o9XFkEQ-1" vertex="1">
                    <mxGeometry x="380" y="510" width="30" height="60" as="geometry"/>
                </mxCell>
                <mxCell id="gZvV0nH_NGW89BqpKpGX-4" value="Luis" style="shape=umlActor;verticalLabelPosition=bottom;verticalAlign=top;html=1;outlineConnect=0;fillColor=#d5e8d4;strokeColor=#82b366;" parent="9hc8IyFY8AAi5o9XFkEQ-1" vertex="1">
                    <mxGeometry x="440" y="510" width="30" height="60" as="geometry"/>
                </mxCell>
                <mxCell id="gZvV0nH_NGW89BqpKpGX-5" value="Facundo" style="shape=umlActor;verticalLabelPosition=bottom;verticalAlign=top;html=1;outlineConnect=0;fillColor=#dae8fc;strokeColor=#6c8ebf;" parent="9hc8IyFY8AAi5o9XFkEQ-1" vertex="1">
                    <mxGeometry x="605" y="510" width="30" height="60" as="geometry"/>
                </mxCell>
                <mxCell id="gZvV0nH_NGW89BqpKpGX-9" value="" style="group" parent="9hc8IyFY8AAi5o9XFkEQ-1" vertex="1" connectable="0">
                    <mxGeometry x="320" y="400" width="30" height="60" as="geometry"/>
                </mxCell>
                <mxCell id="gZvV0nH_NGW89BqpKpGX-10" value="Pamela" style="shape=umlActor;verticalLabelPosition=bottom;verticalAlign=top;html=1;outlineConnect=0;fillColor=#d5e8d4;strokeColor=#82b366;" parent="gZvV0nH_NGW89BqpKpGX-9" vertex="1">
                    <mxGeometry width="30" height="60" as="geometry"/>
                </mxCell>
                <mxCell id="gZvV0nH_NGW89BqpKpGX-11" value="" style="triangle;whiteSpace=wrap;html=1;fillColor=#d5e8d4;rotation=-90;strokeColor=#82b366;" parent="gZvV0nH_NGW89BqpKpGX-9" vertex="1">
                    <mxGeometry x="5" y="30" width="20" height="30" as="geometry"/>
                </mxCell>
                <mxCell id="gZvV0nH_NGW89BqpKpGX-18" value="" style="group" parent="9hc8IyFY8AAi5o9XFkEQ-1" vertex="1" connectable="0">
                    <mxGeometry x="220" y="510" width="30" height="60" as="geometry"/>
                </mxCell>
                <mxCell id="gZvV0nH_NGW89BqpKpGX-19" value="Rosana" style="shape=umlActor;verticalLabelPosition=bottom;verticalAlign=top;html=1;outlineConnect=0;fillColor=#d5e8d4;strokeColor=#82b366;" parent="gZvV0nH_NGW89BqpKpGX-18" vertex="1">
                    <mxGeometry width="30" height="60" as="geometry"/>
                </mxCell>
                <mxCell id="gZvV0nH_NGW89BqpKpGX-20" value="" style="triangle;whiteSpace=wrap;html=1;fillColor=#d5e8d4;rotation=-90;strokeColor=#82b366;" parent="gZvV0nH_NGW89BqpKpGX-18" vertex="1">
                    <mxGeometry x="5" y="30" width="20" height="30" as="geometry"/>
                </mxCell>
                <mxCell id="gZvV0nH_NGW89BqpKpGX-21" value="Mervin" style="shape=umlActor;verticalLabelPosition=bottom;verticalAlign=top;html=1;outlineConnect=0;fillColor=#d5e8d4;strokeColor=#82b366;" parent="9hc8IyFY8AAi5o9XFkEQ-1" vertex="1">
                    <mxGeometry x="490" y="510" width="30" height="60" as="geometry"/>
                </mxCell>
                <mxCell id="gZvV0nH_NGW89BqpKpGX-22" value="" style="group" parent="9hc8IyFY8AAi5o9XFkEQ-1" vertex="1" connectable="0">
                    <mxGeometry x="170" y="510" width="30" height="60" as="geometry"/>
                </mxCell>
                <mxCell id="gZvV0nH_NGW89BqpKpGX-23" value="Yuliet" style="shape=umlActor;verticalLabelPosition=bottom;verticalAlign=top;html=1;outlineConnect=0;fillColor=#d5e8d4;strokeColor=#82b366;" parent="gZvV0nH_NGW89BqpKpGX-22" vertex="1">
                    <mxGeometry width="30" height="60" as="geometry"/>
                </mxCell>
                <mxCell id="gZvV0nH_NGW89BqpKpGX-24" value="" style="triangle;whiteSpace=wrap;html=1;fillColor=#d5e8d4;rotation=-90;strokeColor=#82b366;" parent="gZvV0nH_NGW89BqpKpGX-22" vertex="1">
                    <mxGeometry x="5" y="30" width="20" height="30" as="geometry"/>
                </mxCell>
                <mxCell id="gZvV0nH_NGW89BqpKpGX-25" value="Rodrigo" style="shape=umlActor;verticalLabelPosition=bottom;verticalAlign=top;html=1;outlineConnect=0;fillColor=#d5e8d4;strokeColor=#82b366;" parent="9hc8IyFY8AAi5o9XFkEQ-1" vertex="1">
                    <mxGeometry x="400" y="400" width="30" height="60" as="geometry"/>
                </mxCell>
                <mxCell id="gZvV0nH_NGW89BqpKpGX-26" value="Hector" style="shape=umlActor;verticalLabelPosition=bottom;verticalAlign=top;html=1;outlineConnect=0;fillColor=#dae8fc;strokeColor=#6c8ebf;" parent="9hc8IyFY8AAi5o9XFkEQ-1" vertex="1">
                    <mxGeometry x="705" y="510" width="30" height="60" as="geometry"/>
                </mxCell>
                <mxCell id="-55iJqX7cyHrTdOnYh2b-2" value="" style="group;strokeColor=none;" parent="9hc8IyFY8AAi5o9XFkEQ-1" vertex="1" connectable="0">
                    <mxGeometry x="310" y="290" width="30" height="60" as="geometry"/>
                </mxCell>
                <mxCell id="-55iJqX7cyHrTdOnYh2b-3" value="" style="group" parent="-55iJqX7cyHrTdOnYh2b-2" vertex="1" connectable="0">
                    <mxGeometry width="30" height="60" as="geometry"/>
                </mxCell>
                <mxCell id="-55iJqX7cyHrTdOnYh2b-4" value="MÃ³nica" style="shape=umlActor;verticalLabelPosition=bottom;verticalAlign=top;html=1;outlineConnect=0;fillColor=#d5e8d4;strokeColor=#82b366;" parent="-55iJqX7cyHrTdOnYh2b-3" vertex="1">
                    <mxGeometry width="30" height="60" as="geometry"/>
                </mxCell>
                <mxCell id="-55iJqX7cyHrTdOnYh2b-5" value="" style="triangle;whiteSpace=wrap;html=1;fillColor=#d5e8d4;rotation=-90;strokeColor=#82b366;" parent="-55iJqX7cyHrTdOnYh2b-3" vertex="1">
                    <mxGeometry x="5" y="30" width="20" height="30" as="geometry"/>
                </mxCell>
                <mxCell id="Ij4zHXSFvWGs7sa2fEma-0" value="Jose" style="shape=umlActor;verticalLabelPosition=bottom;verticalAlign=top;html=1;outlineConnect=0;fillColor=#d5e8d4;strokeColor=#82b366;" parent="9hc8IyFY8AAi5o9XFkEQ-1" vertex="1">
                    <mxGeometry x="270" y="510" width="30" height="60" as="geometry"/>
                </mxCell>
            </root>
        </mxGraphModel>
    </diagram>
</mxfile>